<svg width="186.39" height="41.911" viewBox="0 0 186.39 41.911" xmlns="http://www.w3.org/2000/svg"><g id="svgGroup" stroke-linecap="round" fill-rule="evenodd" font-size="9pt" stroke="#ffffff" stroke-width=".25mm" fill="#ffffff" style="stroke:#ffffff;stroke-width:.25mm;fill:#ffffff"><path d="M 8.79 28.44 Q 4.8 28.44 2.4 26.925 A 4.898 4.898 0 0 1 0.084 23.404 A 7.062 7.062 0 0 1 0 22.29 A 7.667 7.667 0 0 1 0.053 21.357 Q 0.11 20.897 0.227 20.52 A 2.961 2.961 0 0 1 0.57 19.77 A 1.826 1.826 0 0 1 1.884 18.926 A 2.513 2.513 0 0 1 2.25 18.9 A 2.554 2.554 0 0 1 2.826 18.962 A 1.783 1.783 0 0 1 3.57 19.32 Q 4.08 19.74 4.08 20.4 Q 4.08 20.916 4.014 21.321 A 3.798 3.798 0 0 1 3.99 21.45 Q 3.99 21.566 3.948 21.85 A 10.037 10.037 0 0 1 3.945 21.87 Q 3.9 22.17 3.9 22.5 A 2.06 2.06 0 0 0 4.205 23.622 Q 4.545 24.162 5.265 24.51 Q 6.63 25.17 9.09 25.17 A 11.566 11.566 0 0 0 10.575 25.081 Q 12.09 24.885 13.08 24.255 A 3.305 3.305 0 0 0 13.958 23.466 Q 14.485 22.768 14.518 21.818 A 3.685 3.685 0 0 0 14.52 21.69 Q 14.52 20.67 13.86 19.935 A 5.229 5.229 0 0 0 12.713 18.985 A 6.338 6.338 0 0 0 12.21 18.705 Q 11.316 18.258 9.761 17.628 A 76.781 76.781 0 0 0 9.42 17.49 A 45.033 45.033 0 0 1 7.87 16.855 Q 7.148 16.543 6.538 16.242 A 19.957 19.957 0 0 1 5.655 15.78 Q 4.2 14.97 3.165 13.575 Q 2.13 12.18 2.13 10.11 A 6.867 6.867 0 0 1 2.604 7.54 A 6.475 6.475 0 0 1 3.285 6.27 Q 4.44 4.59 6.615 3.66 A 11.113 11.113 0 0 1 9.142 2.935 Q 10.352 2.73 11.73 2.73 A 12.985 12.985 0 0 1 14.204 2.958 A 10.86 10.86 0 0 1 15.75 3.375 A 7.239 7.239 0 0 1 17.442 4.22 A 5.982 5.982 0 0 1 18.675 5.34 A 4.728 4.728 0 0 1 19.735 7.91 A 6.211 6.211 0 0 1 19.77 8.58 A 10.132 10.132 0 0 1 19.725 9.57 Q 19.622 10.614 19.285 11.275 A 2.729 2.729 0 0 1 19.2 11.43 A 2.054 2.054 0 0 1 18.686 12.024 Q 18.266 12.345 17.688 12.385 A 2.43 2.43 0 0 1 17.52 12.39 A 2.093 2.093 0 0 1 16.866 12.292 A 1.771 1.771 0 0 1 16.215 11.91 A 1.689 1.689 0 0 1 15.861 11.465 A 1.444 1.444 0 0 1 15.69 10.77 A 6.321 6.321 0 0 1 15.719 10.158 A 5.01 5.01 0 0 1 15.78 9.72 Q 15.867 8.848 15.87 8.596 A 1.448 1.448 0 0 0 15.87 8.58 A 1.978 1.978 0 0 0 15.127 6.984 A 2.924 2.924 0 0 0 14.64 6.66 A 5.232 5.232 0 0 0 13.272 6.168 Q 12.502 6 11.58 6 Q 9 6 7.635 6.945 Q 6.359 7.829 6.276 9.38 A 4.104 4.104 0 0 0 6.27 9.6 A 3.067 3.067 0 0 0 6.466 10.711 A 2.808 2.808 0 0 0 6.975 11.55 A 5.651 5.651 0 0 0 8.318 12.67 A 6.695 6.695 0 0 0 8.73 12.9 Q 9.679 13.388 11.312 14.047 A 67.795 67.795 0 0 0 11.67 14.19 A 57.551 57.551 0 0 1 13.131 14.809 Q 13.778 15.093 14.328 15.359 A 23.612 23.612 0 0 1 15.33 15.87 Q 16.71 16.62 17.685 17.91 Q 18.66 19.2 18.66 21.09 A 7.418 7.418 0 0 1 18.283 23.513 A 6.065 6.065 0 0 1 15.975 26.535 A 9.578 9.578 0 0 1 12.948 27.934 Q 11.11 28.44 8.79 28.44 Z M 21.09 23.85 L 21.12 21.45 A 50.06 50.06 0 0 1 21.652 14.301 A 58.292 58.292 0 0 1 22.065 11.82 A 37.113 37.113 0 0 1 22.981 8.015 Q 23.565 6.074 24.327 4.452 A 20.416 20.416 0 0 1 24.855 3.405 A 10.217 10.217 0 0 1 25.824 1.916 Q 26.416 1.169 27.072 0.714 A 3.797 3.797 0 0 1 29.28 0 Q 30.66 0 31.515 1.185 A 4.307 4.307 0 0 1 32.193 2.686 Q 32.37 3.4 32.37 4.26 A 11.578 11.578 0 0 1 31.778 7.839 A 15.989 15.989 0 0 1 30.6 10.545 A 25.284 25.284 0 0 1 29.121 12.913 Q 28.29 14.104 27.219 15.414 A 63.767 63.767 0 0 1 24.84 18.15 A 55.679 55.679 0 0 0 24.75 21.309 A 60.348 60.348 0 0 0 24.75 21.36 Q 25.74 18.81 26.955 17.205 A 12.624 12.624 0 0 1 27.787 16.21 Q 28.577 15.363 29.355 14.91 A 6.221 6.221 0 0 1 30.147 14.518 Q 30.594 14.337 31.01 14.266 A 3.101 3.101 0 0 1 31.53 14.22 Q 33.077 14.22 33.397 15.448 A 2.873 2.873 0 0 1 33.48 16.17 A 7.079 7.079 0 0 1 33.441 16.848 Q 33.32 18.082 32.82 20.4 A 62.778 62.778 0 0 0 32.598 21.458 Q 32.25 23.194 32.25 23.85 Q 32.25 25.023 33.081 25.05 A 1.219 1.219 0 0 0 33.12 25.05 Q 33.72 25.05 34.545 24.315 A 11.212 11.212 0 0 0 35.053 23.83 Q 35.593 23.284 36.301 22.46 A 50.513 50.513 0 0 0 36.75 21.93 A 1.429 1.429 0 0 1 37.002 21.696 A 0.941 0.941 0 0 1 37.56 21.51 A 0.668 0.668 0 0 1 38.085 21.748 A 0.949 0.949 0 0 1 38.175 21.87 A 1.313 1.313 0 0 1 38.323 22.215 Q 38.369 22.379 38.387 22.576 A 3.024 3.024 0 0 1 38.4 22.86 Q 38.4 23.73 38.101 24.316 A 2.025 2.025 0 0 1 37.83 24.72 Q 36.45 26.31 34.995 27.33 Q 33.54 28.35 31.68 28.35 A 4.209 4.209 0 0 1 30.777 28.26 Q 29.9 28.067 29.37 27.465 A 2.852 2.852 0 0 1 28.804 26.441 Q 28.665 26.012 28.616 25.492 A 6.352 6.352 0 0 1 28.59 24.9 Q 28.59 24.06 29.01 21.9 Q 29.378 20.115 29.399 19.374 A 3.034 3.034 0 0 0 29.4 19.29 A 1.034 1.034 0 0 0 29.387 19.121 Q 29.337 18.821 29.088 18.811 A 0.436 0.436 0 0 0 29.07 18.81 A 0.474 0.474 0 0 0 28.847 18.877 Q 28.494 19.07 27.96 19.815 A 10.272 10.272 0 0 0 27.42 20.66 Q 27.153 21.123 26.886 21.674 A 22.117 22.117 0 0 0 26.52 22.47 Q 25.8 24.12 25.35 25.95 A 4.156 4.156 0 0 1 24.952 27.014 Q 24.209 28.35 22.53 28.35 A 1.923 1.923 0 0 1 22.096 28.305 Q 21.827 28.243 21.64 28.095 A 1.004 1.004 0 0 1 21.345 27.705 Q 21.07 27.082 21.06 25.491 A 19.203 19.203 0 0 1 21.06 25.38 Q 21.06 24.645 21.078 24.139 A 16.232 16.232 0 0 1 21.09 23.85 Z M 132.046 28.083 A 16.487 16.487 0 0 0 135.09 28.35 A 20.982 20.982 0 0 0 136.674 28.289 A 25.131 25.131 0 0 0 139.455 27.915 Q 141.75 27.48 143.88 26.55 A 4.323 4.323 0 0 0 144.798 26.016 A 2.612 2.612 0 0 0 145.86 23.85 A 2.554 2.554 0 0 0 145.857 23.732 Q 145.848 23.524 145.804 23.347 A 1.348 1.348 0 0 0 145.62 22.92 A 0.765 0.765 0 0 0 145.202 22.603 A 1.011 1.011 0 0 0 144.9 22.56 A 1.015 1.015 0 0 0 144.886 22.561 Q 144.59 22.565 144.15 22.74 Q 142.859 23.282 141.691 23.676 A 25.101 25.101 0 0 1 139.725 24.255 Q 137.73 24.75 135.78 24.75 A 14.009 14.009 0 0 1 134.589 24.702 Q 131.533 24.441 129.84 22.785 A 6.039 6.039 0 0 1 129.176 22.018 Q 128.383 20.927 128.057 19.455 A 10.339 10.339 0 0 1 127.83 17.22 Q 127.83 15.576 128.082 14.147 A 12.405 12.405 0 0 1 128.94 11.265 Q 129.426 10.17 130.043 9.306 A 7.849 7.849 0 0 1 131.85 7.47 A 7.878 7.878 0 0 1 132.56 7.016 A 6.153 6.153 0 0 1 135.63 6.18 A 4.564 4.564 0 0 1 136.703 6.296 Q 138.016 6.614 138.391 7.814 A 3.681 3.681 0 0 1 138.54 8.91 A 3.481 3.481 0 0 1 138.539 8.991 Q 138.531 9.339 138.455 9.823 A 12.951 12.951 0 0 1 138.36 10.35 Q 138.24 11.07 138.24 11.34 A 1.93 1.93 0 0 0 138.278 11.734 A 1.26 1.26 0 0 0 138.72 12.48 A 1.504 1.504 0 0 0 138.987 12.654 Q 139.222 12.773 139.516 12.826 A 2.925 2.925 0 0 0 140.04 12.87 A 2.578 2.578 0 0 0 140.065 12.87 Q 140.841 12.863 141.383 12.387 A 2.488 2.488 0 0 0 141.885 11.76 Q 142.53 10.65 142.53 8.82 A 7.834 7.834 0 0 0 142.447 7.658 A 5.585 5.585 0 0 0 140.85 4.425 A 5.027 5.027 0 0 0 139.698 3.574 Q 138.867 3.124 137.803 2.923 A 10.094 10.094 0 0 0 135.93 2.76 Q 132.45 2.76 129.6 4.635 A 12.013 12.013 0 0 0 127.189 6.733 A 14.17 14.17 0 0 0 125.085 9.93 A 15.896 15.896 0 0 0 123.836 13.598 A 19.983 19.983 0 0 0 123.42 17.76 A 13.002 13.002 0 0 0 123.532 19.488 A 10.192 10.192 0 0 0 124.83 23.34 A 9.21 9.21 0 0 0 125.888 24.798 A 9.698 9.698 0 0 0 128.88 27.045 A 12.18 12.18 0 0 0 132.046 28.083 Z M 66.045 21.748 A 0.668 0.668 0 0 0 65.52 21.51 A 0.941 0.941 0 0 0 64.962 21.696 A 1.429 1.429 0 0 0 64.71 21.93 Q 63.697 23.138 62.947 23.85 A 8.706 8.706 0 0 1 62.4 24.33 A 3.779 3.779 0 0 1 61.901 24.67 A 2.789 2.789 0 0 1 60.51 25.05 A 2.525 2.525 0 0 1 60.197 25.029 Q 60.027 25.008 59.833 24.965 A 6.185 6.185 0 0 1 59.46 24.87 Q 60.36 23.64 60.87 22.14 Q 61.38 20.64 61.38 19.05 Q 61.38 18.124 61.19 17.349 A 4.755 4.755 0 0 0 60.315 15.51 A 4.212 4.212 0 0 0 60.075 15.231 A 3.301 3.301 0 0 0 57.57 14.16 Q 56.52 14.16 55.59 14.685 A 4.557 4.557 0 0 0 55.104 15.004 Q 54.747 15.271 54.386 15.635 A 9.764 9.764 0 0 0 53.7 16.41 Q 53.67 16.05 53.67 15.3 A 3.547 3.547 0 0 0 53.656 15.09 Q 53.621 14.74 53.518 14.523 A 0.703 0.703 0 0 0 53.355 14.295 A 0.706 0.706 0 0 0 53.332 14.276 Q 53.129 14.109 52.766 14.06 A 2.463 2.463 0 0 0 52.44 14.04 Q 51.36 14.04 50.64 14.55 A 2.076 2.076 0 0 0 50.576 14.598 Q 49.921 15.1 49.95 15.93 A 55.937 55.937 0 0 1 49.969 16.618 Q 49.998 17.877 50.006 20.026 A 505.294 505.294 0 0 1 50.01 22.02 A 66.852 66.852 0 0 0 49.246 23.329 Q 47 27.281 45.84 30.645 Q 45.039 32.97 44.713 34.951 A 15.757 15.757 0 0 0 44.49 37.5 Q 44.49 38.697 44.751 39.593 A 4.138 4.138 0 0 0 45.27 40.74 A 2.486 2.486 0 0 0 46.697 41.784 A 3.535 3.535 0 0 0 47.67 41.91 Q 49.735 41.91 51.029 39.586 A 10.31 10.31 0 0 0 51.72 38.025 A 24.528 24.528 0 0 0 52.313 36.1 Q 52.761 34.408 53.058 32.425 A 50.339 50.339 0 0 0 53.49 28.35 A 6.28 6.28 0 0 0 55.089 28.117 A 7.166 7.166 0 0 0 57.06 27.21 A 3.204 3.204 0 0 0 58.364 28.132 A 3.603 3.603 0 0 0 59.64 28.35 Q 61.53 28.35 63.015 27.33 A 11.895 11.895 0 0 0 64.189 26.408 A 14.388 14.388 0 0 0 65.79 24.72 A 2.025 2.025 0 0 0 66.061 24.316 Q 66.36 23.73 66.36 22.86 A 3.024 3.024 0 0 0 66.347 22.576 Q 66.329 22.379 66.283 22.215 A 1.313 1.313 0 0 0 66.135 21.87 A 0.949 0.949 0 0 0 66.045 21.748 Z M 80.475 21.748 A 0.668 0.668 0 0 0 79.95 21.51 A 0.941 0.941 0 0 0 79.392 21.696 A 1.429 1.429 0 0 0 79.14 21.93 Q 78.127 23.138 77.377 23.85 A 8.706 8.706 0 0 1 76.83 24.33 A 3.779 3.779 0 0 1 76.331 24.67 A 2.789 2.789 0 0 1 74.94 25.05 A 2.525 2.525 0 0 1 74.627 25.029 Q 74.457 25.008 74.263 24.965 A 6.185 6.185 0 0 1 73.89 24.87 Q 74.79 23.64 75.3 22.14 Q 75.81 20.64 75.81 19.05 Q 75.81 18.124 75.62 17.349 A 4.755 4.755 0 0 0 74.745 15.51 A 4.212 4.212 0 0 0 74.505 15.231 A 3.301 3.301 0 0 0 72 14.16 Q 70.95 14.16 70.02 14.685 A 4.557 4.557 0 0 0 69.534 15.004 Q 69.177 15.271 68.816 15.635 A 9.764 9.764 0 0 0 68.13 16.41 Q 68.1 16.05 68.1 15.3 A 3.547 3.547 0 0 0 68.086 15.09 Q 68.051 14.74 67.948 14.523 A 0.703 0.703 0 0 0 67.785 14.295 A 0.706 0.706 0 0 0 67.762 14.276 Q 67.559 14.109 67.196 14.06 A 2.463 2.463 0 0 0 66.87 14.04 Q 65.79 14.04 65.07 14.55 A 2.076 2.076 0 0 0 65.006 14.598 Q 64.351 15.1 64.38 15.93 A 55.937 55.937 0 0 1 64.399 16.618 Q 64.428 17.877 64.436 20.026 A 505.294 505.294 0 0 1 64.44 22.02 A 66.852 66.852 0 0 0 63.676 23.329 Q 61.43 27.281 60.27 30.645 Q 59.469 32.97 59.143 34.951 A 15.757 15.757 0 0 0 58.92 37.5 Q 58.92 38.697 59.181 39.593 A 4.138 4.138 0 0 0 59.7 40.74 A 2.486 2.486 0 0 0 61.127 41.784 A 3.535 3.535 0 0 0 62.1 41.91 Q 64.165 41.91 65.459 39.586 A 10.31 10.31 0 0 0 66.15 38.025 A 24.528 24.528 0 0 0 66.743 36.1 Q 67.191 34.408 67.488 32.425 A 50.339 50.339 0 0 0 67.92 28.35 A 6.28 6.28 0 0 0 69.519 28.117 A 7.166 7.166 0 0 0 71.49 27.21 A 3.204 3.204 0 0 0 72.794 28.132 A 3.603 3.603 0 0 0 74.07 28.35 Q 75.96 28.35 77.445 27.33 A 11.895 11.895 0 0 0 78.619 26.408 A 14.388 14.388 0 0 0 80.22 24.72 A 2.025 2.025 0 0 0 80.491 24.316 Q 80.79 23.73 80.79 22.86 A 3.024 3.024 0 0 0 80.777 22.576 Q 80.759 22.379 80.713 22.215 A 1.313 1.313 0 0 0 80.565 21.87 A 0.949 0.949 0 0 0 80.475 21.748 Z M 173.46 17.07 L 172.29 17.07 A 3.833 3.833 0 0 1 171.883 17.05 Q 171.471 17.006 171.233 16.864 A 0.74 0.74 0 0 1 171.075 16.74 A 0.991 0.991 0 0 1 170.867 16.396 Q 170.81 16.244 170.784 16.054 A 2.63 2.63 0 0 1 170.76 15.69 A 3.069 3.069 0 0 1 170.816 15.077 Q 171.034 14.01 172.11 14.01 L 173.82 14.01 A 31.583 31.583 0 0 1 174.642 10.2 A 25.912 25.912 0 0 1 175.38 7.98 A 17.73 17.73 0 0 1 176.295 5.963 Q 177.028 4.599 177.915 3.63 A 6.114 6.114 0 0 1 178.914 2.742 Q 179.646 2.23 180.428 2.077 A 3.525 3.525 0 0 1 181.11 2.01 Q 182.37 2.01 183.09 3.12 Q 183.81 4.23 183.81 5.91 A 10.149 10.149 0 0 1 180.982 12.96 A 14.259 14.259 0 0 1 179.91 14.01 L 183.27 14.01 A 1.73 1.73 0 0 1 183.516 14.027 Q 183.808 14.069 183.96 14.22 A 0.564 0.564 0 0 1 184.079 14.405 Q 184.15 14.575 184.166 14.841 A 2.685 2.685 0 0 1 184.17 15 Q 184.17 16.973 181.091 17.066 A 10.342 10.342 0 0 1 180.78 17.07 L 177.12 17.07 A 113.149 113.149 0 0 0 177.094 17.779 Q 177.071 18.468 177.063 18.98 A 30.581 30.581 0 0 0 177.06 19.41 A 21.002 21.002 0 0 0 177.106 20.854 Q 177.203 22.253 177.504 23.136 A 3.614 3.614 0 0 0 177.795 23.79 A 2.396 2.396 0 0 0 179.509 24.998 A 3.432 3.432 0 0 0 180.12 25.05 Q 181.41 25.05 182.4 24.27 A 10.71 10.71 0 0 0 183.054 23.707 Q 183.762 23.05 184.618 22.071 A 34.776 34.776 0 0 0 184.74 21.93 A 1.429 1.429 0 0 1 184.992 21.696 A 0.941 0.941 0 0 1 185.55 21.51 A 0.668 0.668 0 0 1 186.075 21.748 A 0.949 0.949 0 0 1 186.165 21.87 A 1.313 1.313 0 0 1 186.313 22.215 Q 186.359 22.379 186.377 22.576 A 3.024 3.024 0 0 1 186.39 22.86 Q 186.39 23.73 186.091 24.316 A 2.025 2.025 0 0 1 185.82 24.72 A 13.519 13.519 0 0 1 184.035 26.552 A 11.57 11.57 0 0 1 183 27.33 A 6.097 6.097 0 0 1 179.857 28.342 A 7.452 7.452 0 0 1 179.49 28.35 A 6.047 6.047 0 0 1 176.532 27.669 Q 173.37 25.929 173.37 19.74 Q 173.37 18.42 173.46 17.07 Z M 112.17 27.24 L 110.25 28.53 A 56.236 56.236 0 0 1 109.469 32.152 Q 109.005 33.987 108.459 35.514 A 22.508 22.508 0 0 1 107.265 38.295 A 9.784 9.784 0 0 1 106.247 39.892 Q 105.588 40.718 104.831 41.196 A 4.157 4.157 0 0 1 102.57 41.85 A 4.038 4.038 0 0 1 101.421 41.695 A 3.16 3.16 0 0 1 100.08 40.905 A 3.173 3.173 0 0 1 99.154 38.984 A 4.399 4.399 0 0 1 99.12 38.43 A 6.304 6.304 0 0 1 99.486 36.373 Q 99.904 35.159 100.8 33.855 Q 102.197 31.822 105.627 29.012 A 65.736 65.736 0 0 1 107.1 27.84 L 107.28 26.67 Q 106.77 27.48 105.945 27.915 A 3.927 3.927 0 0 1 105.124 28.242 A 3.154 3.154 0 0 1 104.31 28.35 A 4.133 4.133 0 0 1 102.898 28.119 A 3.558 3.558 0 0 1 101.34 27 A 4.71 4.71 0 0 1 100.403 25.058 Q 100.241 24.37 100.231 23.568 A 8.522 8.522 0 0 1 100.23 23.46 Q 100.23 21.06 101.34 18.915 A 9.753 9.753 0 0 1 103.315 16.266 A 9.08 9.08 0 0 1 104.295 15.465 A 7.204 7.204 0 0 1 106.35 14.438 A 6.325 6.325 0 0 1 108.21 14.16 A 2.67 2.67 0 0 1 108.504 14.175 Q 108.808 14.209 108.981 14.319 A 0.53 0.53 0 0 1 109.095 14.415 A 1.002 1.002 0 0 1 109.222 14.603 Q 109.332 14.806 109.42 15.129 A 4.902 4.902 0 0 1 109.47 15.33 Q 109.993 15.22 110.667 15.211 A 9.098 9.098 0 0 1 110.79 15.21 A 3.995 3.995 0 0 1 111.138 15.225 Q 111.494 15.256 111.716 15.356 A 0.825 0.825 0 0 1 111.855 15.435 A 0.638 0.638 0 0 1 112.064 15.701 Q 112.17 15.938 112.17 16.32 A 7.054 7.054 0 0 1 112.167 16.531 Q 112.161 16.723 112.144 16.859 A 1.903 1.903 0 0 1 112.14 16.89 A 26.372 26.372 0 0 1 112.077 17.339 Q 111.902 18.529 111.39 21.6 A 164.956 164.956 0 0 0 111.266 22.354 A 212.945 212.945 0 0 0 111.135 23.175 A 1051.041 1051.041 0 0 0 110.996 24.057 A 1250.986 1250.986 0 0 0 110.85 24.99 A 68.687 68.687 0 0 1 113.53 23.001 A 55.373 55.373 0 0 1 115.29 21.81 A 2.162 2.162 0 0 1 115.525 21.684 Q 115.774 21.57 115.98 21.57 A 0.656 0.656 0 0 1 116.501 21.813 A 0.982 0.982 0 0 1 116.595 21.945 A 1.488 1.488 0 0 1 116.764 22.369 Q 116.82 22.605 116.82 22.89 Q 116.82 23.34 116.731 23.662 A 1.483 1.483 0 0 1 116.61 23.97 A 1.727 1.727 0 0 1 116.287 24.391 A 2.377 2.377 0 0 1 115.95 24.66 A 618.795 618.795 0 0 0 114.746 25.474 Q 113.154 26.554 112.262 27.176 A 84.621 84.621 0 0 0 112.17 27.24 Z M 86.265 27.15 A 2.537 2.537 0 0 0 86.487 27.597 Q 86.967 28.35 87.87 28.35 Q 88.321 28.35 88.655 28.234 A 1.34 1.34 0 0 0 89.235 27.855 A 1.76 1.76 0 0 0 89.43 27.578 Q 89.644 27.212 89.829 26.598 A 10.686 10.686 0 0 0 90 25.95 Q 90.45 24.12 91.185 22.47 Q 91.644 21.439 92.092 20.66 A 11.107 11.107 0 0 1 92.625 19.815 A 8.01 8.01 0 0 1 92.803 19.571 Q 93.21 19.036 93.498 18.877 A 0.468 0.468 0 0 1 93.72 18.81 A 0.436 0.436 0 0 1 93.738 18.811 Q 93.987 18.821 94.037 19.121 A 1.034 1.034 0 0 1 94.05 19.29 A 3.034 3.034 0 0 1 94.049 19.374 Q 94.028 20.115 93.66 21.9 Q 93.24 24.06 93.24 24.9 A 6.352 6.352 0 0 0 93.266 25.492 Q 93.315 26.012 93.454 26.441 A 2.852 2.852 0 0 0 94.02 27.465 Q 94.55 28.067 95.427 28.26 A 4.209 4.209 0 0 0 96.33 28.35 Q 98.22 28.35 99.705 27.33 A 11.895 11.895 0 0 0 100.879 26.408 A 14.388 14.388 0 0 0 102.48 24.72 A 2.025 2.025 0 0 0 102.751 24.316 Q 103.05 23.73 103.05 22.86 A 3.024 3.024 0 0 0 103.037 22.576 Q 103.019 22.379 102.973 22.215 A 1.313 1.313 0 0 0 102.825 21.87 A 0.949 0.949 0 0 0 102.735 21.748 A 0.668 0.668 0 0 0 102.21 21.51 A 0.941 0.941 0 0 0 101.652 21.696 A 1.429 1.429 0 0 0 101.4 21.93 A 50.513 50.513 0 0 1 100.951 22.46 Q 100.243 23.284 99.703 23.83 A 11.212 11.212 0 0 1 99.195 24.315 Q 98.37 25.05 97.77 25.05 A 1.219 1.219 0 0 1 97.731 25.05 Q 96.9 25.023 96.9 23.85 Q 96.9 23.194 97.248 21.458 A 62.778 62.778 0 0 1 97.47 20.4 Q 97.97 18.082 98.091 16.848 A 7.079 7.079 0 0 0 98.13 16.17 A 2.873 2.873 0 0 0 98.047 15.448 Q 97.727 14.22 96.18 14.22 A 3.101 3.101 0 0 0 95.66 14.266 Q 95.244 14.337 94.797 14.518 A 6.221 6.221 0 0 0 94.005 14.91 A 5.694 5.694 0 0 0 93.309 15.393 Q 92.461 16.074 91.59 17.22 Q 90.36 18.84 89.37 21.42 Q 89.445 20.595 89.544 19.935 A 15.099 15.099 0 0 1 89.67 19.2 A 33.521 33.521 0 0 1 89.794 18.609 Q 89.944 17.925 90.15 17.1 A 39.39 39.39 0 0 0 90.301 16.519 Q 90.52 15.65 90.579 15.208 A 2.111 2.111 0 0 0 90.6 14.94 A 1.229 1.229 0 0 0 90.592 14.795 Q 90.579 14.688 90.546 14.604 A 0.462 0.462 0 0 0 90.36 14.37 A 0.664 0.664 0 0 0 90.235 14.311 Q 89.986 14.22 89.52 14.22 A 5.106 5.106 0 0 0 88.977 14.248 Q 88.649 14.283 88.376 14.363 A 2.161 2.161 0 0 0 87.795 14.625 A 1.996 1.996 0 0 0 87.161 15.313 A 2.905 2.905 0 0 0 86.91 15.9 Q 85.8 19.41 85.8 23.31 Q 85.8 25.95 86.265 27.15 Z M 158.145 27.15 A 2.537 2.537 0 0 0 158.367 27.597 Q 158.847 28.35 159.75 28.35 Q 160.201 28.35 160.535 28.234 A 1.34 1.34 0 0 0 161.115 27.855 A 1.76 1.76 0 0 0 161.31 27.578 Q 161.524 27.212 161.709 26.598 A 10.686 10.686 0 0 0 161.88 25.95 Q 162.33 24.12 163.05 22.47 A 21.028 21.028 0 0 1 163.417 21.674 Q 163.685 21.123 163.956 20.66 A 9.898 9.898 0 0 1 164.505 19.815 A 7.848 7.848 0 0 1 164.607 19.679 Q 165.272 18.81 165.69 18.81 A 0.436 0.436 0 0 1 165.708 18.811 Q 165.957 18.821 166.007 19.121 A 1.034 1.034 0 0 1 166.02 19.29 A 2.087 2.087 0 0 1 166.019 19.354 Q 166.014 19.52 165.985 19.841 A 27.355 27.355 0 0 1 165.96 20.1 Q 165.87 20.55 165.87 21 A 3.909 3.909 0 0 0 165.936 21.733 A 2.695 2.695 0 0 0 166.695 23.19 A 2.468 2.468 0 0 0 167.261 23.604 Q 167.998 24 169.11 24 Q 170.37 24 171.495 23.385 Q 172.62 22.77 173.46 21.9 A 1.959 1.959 0 0 0 173.641 21.681 Q 173.888 21.332 173.989 20.867 A 3.313 3.313 0 0 0 174.06 20.16 A 2.617 2.617 0 0 0 174.054 19.977 Q 174.023 19.533 173.835 19.245 A 0.923 0.923 0 0 0 173.753 19.137 A 0.681 0.681 0 0 0 173.22 18.9 A 0.901 0.901 0 0 0 173.026 18.922 Q 172.709 18.992 172.41 19.29 Q 171.482 20.219 170.791 20.494 A 1.469 1.469 0 0 1 170.25 20.61 A 1.04 1.04 0 0 1 170.22 20.61 Q 169.5 20.589 169.5 19.56 A 1.689 1.689 0 0 1 169.511 19.395 Q 169.541 19.101 169.659 18.479 A 40.728 40.728 0 0 1 169.74 18.06 A 62.521 62.521 0 0 0 169.774 17.872 Q 170.01 16.535 170.01 16.17 A 2.873 2.873 0 0 0 169.927 15.448 Q 169.607 14.22 168.06 14.22 A 3.101 3.101 0 0 0 167.54 14.266 Q 167.124 14.337 166.677 14.518 A 6.221 6.221 0 0 0 165.885 14.91 A 5.694 5.694 0 0 0 165.189 15.393 Q 164.341 16.074 163.47 17.22 Q 162.24 18.84 161.25 21.42 Q 161.325 20.595 161.424 19.935 A 15.099 15.099 0 0 1 161.55 19.2 A 33.521 33.521 0 0 1 161.674 18.609 Q 161.824 17.925 162.03 17.1 A 39.39 39.39 0 0 0 162.181 16.519 Q 162.4 15.65 162.459 15.208 A 2.111 2.111 0 0 0 162.48 14.94 A 1.229 1.229 0 0 0 162.472 14.795 Q 162.459 14.688 162.426 14.604 A 0.462 0.462 0 0 0 162.24 14.37 A 0.664 0.664 0 0 0 162.115 14.311 Q 161.866 14.22 161.4 14.22 A 5.106 5.106 0 0 0 160.857 14.248 Q 160.529 14.283 160.256 14.363 A 2.161 2.161 0 0 0 159.675 14.625 A 1.996 1.996 0 0 0 159.041 15.313 A 2.905 2.905 0 0 0 158.79 15.9 Q 157.68 19.41 157.68 23.31 Q 157.68 25.95 158.145 27.15 Z M 145.798 28.119 A 4.133 4.133 0 0 0 147.21 28.35 A 4.057 4.057 0 0 0 150.144 27.103 A 6.795 6.795 0 0 0 151.14 25.83 Q 151.56 27 152.385 27.675 A 3.51 3.51 0 0 0 152.515 27.777 A 2.766 2.766 0 0 0 154.2 28.35 Q 155.49 28.35 156.87 27.3 A 13.496 13.496 0 0 0 157.884 26.445 A 16.226 16.226 0 0 0 159.48 24.72 A 2.025 2.025 0 0 0 159.751 24.316 Q 160.05 23.73 160.05 22.86 A 3.024 3.024 0 0 0 160.037 22.576 Q 160.019 22.379 159.973 22.215 A 1.313 1.313 0 0 0 159.825 21.87 A 0.949 0.949 0 0 0 159.735 21.748 A 0.668 0.668 0 0 0 159.21 21.51 A 0.941 0.941 0 0 0 158.652 21.696 A 1.429 1.429 0 0 0 158.4 21.93 Q 157.02 23.58 156.21 24.315 Q 155.666 24.809 155.23 24.971 A 1.151 1.151 0 0 1 154.83 25.05 A 0.912 0.912 0 0 1 154.764 25.048 A 0.718 0.718 0 0 1 154.245 24.78 A 0.86 0.86 0 0 1 154.184 24.698 Q 154.089 24.552 154.049 24.361 A 1.462 1.462 0 0 1 154.02 24.06 A 5.72 5.72 0 0 1 154.021 23.965 Q 154.044 22.591 154.71 19.26 Q 155.076 17.335 155.144 16.558 A 3.498 3.498 0 0 0 155.16 16.26 A 1.455 1.455 0 0 0 155.159 16.218 Q 155.136 15.411 154.208 15.251 A 3.049 3.049 0 0 0 153.69 15.21 A 7.792 7.792 0 0 0 153.497 15.213 A 6.934 6.934 0 0 0 152.37 15.33 A 4.902 4.902 0 0 0 152.32 15.129 Q 152.232 14.806 152.122 14.603 A 1.002 1.002 0 0 0 151.995 14.415 A 0.53 0.53 0 0 0 151.881 14.319 Q 151.708 14.209 151.404 14.175 A 2.67 2.67 0 0 0 151.11 14.16 A 6.325 6.325 0 0 0 149.25 14.438 A 7.204 7.204 0 0 0 147.195 15.465 A 9.08 9.08 0 0 0 146.215 16.266 A 9.753 9.753 0 0 0 144.24 18.915 Q 143.13 21.06 143.13 23.46 A 8.522 8.522 0 0 0 143.131 23.568 Q 143.141 24.37 143.303 25.058 A 4.71 4.71 0 0 0 144.24 27 A 3.558 3.558 0 0 0 145.798 28.119 Z M 51.768 19.226 A 0.616 0.616 0 0 0 51.27 18.99 A 1.202 1.202 0 0 0 51.19 18.993 Q 51.111 18.999 51.022 19.014 A 2.368 2.368 0 0 0 50.85 19.05 Q 49.631 19.369 48.624 19.524 A 12.927 12.927 0 0 1 47.49 19.65 Q 47.25 17.34 45.855 15.765 A 4.494 4.494 0 0 0 43.931 14.466 A 5.344 5.344 0 0 0 42.18 14.19 Q 40.32 14.19 38.79 15.195 A 6.484 6.484 0 0 0 37.695 16.1 A 7.222 7.222 0 0 0 36.39 17.985 A 8.272 8.272 0 0 0 35.762 19.783 A 10.211 10.211 0 0 0 35.52 22.05 A 8.481 8.481 0 0 0 35.521 22.181 A 7.366 7.366 0 0 0 36.18 25.17 Q 36.84 26.61 38.115 27.48 A 4.821 4.821 0 0 0 39.667 28.172 A 6.212 6.212 0 0 0 41.19 28.35 A 5.416 5.416 0 0 0 43.155 27.992 A 5.946 5.946 0 0 0 45 26.835 A 6.876 6.876 0 0 0 46.472 24.942 A 8.554 8.554 0 0 0 47.25 22.8 A 15.692 15.692 0 0 0 48.573 22.69 A 12.867 12.867 0 0 0 51.21 22.08 A 1.081 1.081 0 0 0 51.894 21.453 Q 51.992 21.234 52.038 20.944 A 3.632 3.632 0 0 0 52.08 20.37 A 3.169 3.169 0 0 0 52.075 20.195 Q 52.049 19.712 51.87 19.38 A 0.948 0.948 0 0 0 51.768 19.226 Z M 80.935 28.216 A 4.322 4.322 0 0 0 82.05 28.35 A 3.905 3.905 0 0 0 82.945 28.244 Q 85.139 27.729 87.6 24.72 A 2.025 2.025 0 0 0 87.871 24.316 Q 88.17 23.73 88.17 22.86 A 3.024 3.024 0 0 0 88.157 22.576 Q 88.139 22.379 88.093 22.215 A 1.313 1.313 0 0 0 87.945 21.87 A 0.949 0.949 0 0 0 87.855 21.748 A 0.668 0.668 0 0 0 87.33 21.51 A 0.941 0.941 0 0 0 86.772 21.696 A 1.429 1.429 0 0 0 86.52 21.93 A 55.257 55.257 0 0 1 86.081 22.452 Q 85.388 23.262 84.858 23.81 A 12.788 12.788 0 0 1 84.36 24.3 Q 83.55 25.05 83.01 25.05 A 1.196 1.196 0 0 1 82.849 25.04 Q 82.608 25.007 82.438 24.872 A 0.879 0.879 0 0 1 82.2 24.57 Q 82.031 24.233 81.981 23.688 A 5.453 5.453 0 0 1 81.96 23.19 A 5.41 5.41 0 0 1 81.974 22.829 Q 82.037 21.887 82.4 20.062 A 72.926 72.926 0 0 1 82.68 18.72 Q 83.128 16.577 83.224 15.654 A 4.149 4.149 0 0 0 83.25 15.24 A 1.288 1.288 0 0 0 83.248 15.167 Q 83.205 14.412 82.259 14.259 A 3.395 3.395 0 0 0 81.72 14.22 A 5.166 5.166 0 0 0 81.596 14.222 Q 80.701 14.243 80.28 14.58 A 1.214 1.214 0 0 0 80.198 14.653 Q 79.805 15.03 79.56 15.9 A 29.017 29.017 0 0 0 79.182 17.313 A 34.542 34.542 0 0 0 78.675 19.845 A 34.851 34.851 0 0 0 78.486 21.151 Q 78.33 22.403 78.33 23.31 A 10.62 10.62 0 0 0 78.356 24.062 Q 78.411 24.846 78.587 25.507 A 5.134 5.134 0 0 0 79.215 26.97 A 2.841 2.841 0 0 0 80.935 28.216 Z M 47.91 38.97 A 0.529 0.529 0 0 0 48.31 38.736 Q 48.859 38.062 49.26 35.445 Q 49.631 33.022 49.818 29.783 A 107.353 107.353 0 0 0 49.95 26.67 A 48.257 48.257 0 0 0 48.609 30.138 A 38.936 38.936 0 0 0 47.91 32.4 A 26.785 26.785 0 0 0 47.483 34.175 Q 47.16 35.77 47.16 36.99 A 6.606 6.606 0 0 0 47.18 37.521 Q 47.227 38.102 47.385 38.46 A 1.738 1.738 0 0 0 47.487 38.659 Q 47.611 38.864 47.756 38.934 A 0.35 0.35 0 0 0 47.91 38.97 Z M 62.34 38.97 A 0.529 0.529 0 0 0 62.74 38.736 Q 63.289 38.062 63.69 35.445 Q 64.061 33.022 64.248 29.783 A 107.353 107.353 0 0 0 64.38 26.67 A 48.257 48.257 0 0 0 63.039 30.138 A 38.936 38.936 0 0 0 62.34 32.4 A 26.785 26.785 0 0 0 61.913 34.175 Q 61.59 35.77 61.59 36.99 A 6.606 6.606 0 0 0 61.61 37.521 Q 61.657 38.102 61.815 38.46 A 1.738 1.738 0 0 0 61.917 38.659 Q 62.041 38.864 62.186 38.934 A 0.35 0.35 0 0 0 62.34 38.97 Z M 28.65 2.97 A 0.523 0.523 0 0 0 28.337 3.093 Q 27.924 3.405 27.45 4.515 A 15.746 15.746 0 0 0 27.042 5.587 Q 26.612 6.839 26.202 8.57 A 49.47 49.47 0 0 0 26.175 8.685 Q 25.56 11.31 25.17 14.4 Q 27.03 12.21 28.245 9.63 A 15.066 15.066 0 0 0 28.985 7.763 Q 29.304 6.755 29.409 5.832 A 7.826 7.826 0 0 0 29.46 4.95 A 7.075 7.075 0 0 0 29.442 4.42 Q 29.398 3.839 29.25 3.48 Q 29.137 3.205 28.97 3.078 A 0.515 0.515 0 0 0 28.65 2.97 Z M 150.42 22.47 L 151.53 16.95 A 3.512 3.512 0 0 0 149.577 17.607 A 4.58 4.58 0 0 0 149.205 17.895 A 5.913 5.913 0 0 0 147.97 19.389 A 7.579 7.579 0 0 0 147.51 20.31 Q 146.88 21.81 146.88 23.49 A 3.699 3.699 0 0 0 146.91 23.976 Q 146.985 24.542 147.25 24.865 A 1.173 1.173 0 0 0 147.255 24.87 A 1.226 1.226 0 0 0 148.091 25.309 A 1.756 1.756 0 0 0 148.29 25.32 Q 148.814 25.32 149.3 24.829 A 3.081 3.081 0 0 0 149.55 24.54 A 4.007 4.007 0 0 0 150.04 23.698 Q 150.217 23.292 150.342 22.804 A 7.613 7.613 0 0 0 150.42 22.47 Z M 107.61 22.08 L 108.57 16.95 A 3.388 3.388 0 0 0 106.728 17.557 A 4.496 4.496 0 0 0 106.29 17.895 A 5.944 5.944 0 0 0 105.094 19.346 A 7.693 7.693 0 0 0 104.61 20.31 Q 103.98 21.81 103.98 23.49 A 3.699 3.699 0 0 0 104.01 23.976 Q 104.085 24.542 104.35 24.865 A 1.173 1.173 0 0 0 104.355 24.87 A 1.226 1.226 0 0 0 105.191 25.309 A 1.756 1.756 0 0 0 105.39 25.32 A 1.234 1.234 0 0 0 106.044 25.124 Q 106.385 24.914 106.71 24.48 Q 107.172 23.864 107.441 22.861 A 8.893 8.893 0 0 0 107.61 22.08 Z M 53.64 25.47 A 3.629 3.629 0 0 0 54.987 24.852 A 4.912 4.912 0 0 0 55.635 24.285 A 6.479 6.479 0 0 0 56.716 22.773 A 8.024 8.024 0 0 0 57.09 21.945 Q 57.63 20.55 57.63 19.02 A 3.6 3.6 0 0 0 57.597 18.512 Q 57.56 18.254 57.482 18.045 A 1.465 1.465 0 0 0 57.27 17.655 A 1.139 1.139 0 0 0 56.443 17.196 A 1.45 1.45 0 0 0 56.31 17.19 A 1.405 1.405 0 0 0 55.629 17.391 Q 54.856 17.822 53.901 19.178 A 15.54 15.54 0 0 0 53.7 19.47 Q 53.67 20.79 53.67 23.34 Q 53.67 24.397 53.652 25.084 A 26.999 26.999 0 0 1 53.64 25.47 Z M 68.07 25.47 A 3.629 3.629 0 0 0 69.417 24.852 A 4.912 4.912 0 0 0 70.065 24.285 A 6.479 6.479 0 0 0 71.146 22.773 A 8.024 8.024 0 0 0 71.52 21.945 Q 72.06 20.55 72.06 19.02 A 3.6 3.6 0 0 0 72.027 18.512 Q 71.99 18.254 71.912 18.045 A 1.465 1.465 0 0 0 71.7 17.655 A 1.139 1.139 0 0 0 70.873 17.196 A 1.45 1.45 0 0 0 70.74 17.19 A 1.405 1.405 0 0 0 70.059 17.391 Q 69.286 17.822 68.331 19.178 A 15.54 15.54 0 0 0 68.13 19.47 Q 68.1 20.79 68.1 23.34 Q 68.1 24.397 68.082 25.084 A 26.999 26.999 0 0 1 68.07 25.47 Z M 42.21 17.37 L 42.06 17.37 Q 40.86 17.37 40.065 18.525 A 3.986 3.986 0 0 0 39.543 19.644 Q 39.389 20.154 39.322 20.766 A 9.319 9.319 0 0 0 39.27 21.78 Q 39.27 23.43 39.915 24.3 A 2.654 2.654 0 0 0 40.34 24.759 A 1.659 1.659 0 0 0 41.43 25.17 A 2.126 2.126 0 0 0 42.938 24.552 A 2.918 2.918 0 0 0 43.095 24.39 Q 43.8 23.61 44.04 22.14 Q 43.11 21.51 42.615 20.49 Q 42.12 19.47 42.12 18.33 Q 42.12 17.85 42.21 17.37 Z M 179.382 5.845 A 7.049 7.049 0 0 0 179.295 6.015 Q 178.74 7.14 178.245 9.135 A 36.602 36.602 0 0 0 177.791 11.239 A 47.7 47.7 0 0 0 177.42 13.56 A 11.003 11.003 0 0 0 179.21 11.611 A 9.413 9.413 0 0 0 180.075 10.125 A 11.175 11.175 0 0 0 180.614 8.745 Q 180.96 7.635 180.96 6.66 A 7.251 7.251 0 0 0 180.941 6.104 Q 180.847 4.89 180.3 4.89 Q 179.886 4.89 179.382 5.845 Z M 102.9 38.94 Q 103.65 38.94 104.595 37.14 A 11.272 11.272 0 0 0 105.121 35.959 Q 105.629 34.639 106.115 32.674 A 53.181 53.181 0 0 0 106.41 31.41 A 28.01 28.01 0 0 0 105.092 32.61 Q 103.781 33.887 103.08 34.98 Q 102.435 35.986 102.198 36.836 A 3.481 3.481 0 0 0 102.06 37.77 Q 102.06 38.186 102.189 38.482 A 1.187 1.187 0 0 0 102.255 38.61 A 0.645 0.645 0 0 0 102.727 38.927 A 1.038 1.038 0 0 0 102.9 38.94 Z M 81.597 12.189 A 4.343 4.343 0 0 0 82.29 12.24 A 3.88 3.88 0 0 0 83.125 12.155 A 2.655 2.655 0 0 0 84.36 11.535 A 2.267 2.267 0 0 0 85.026 10.477 A 2.976 2.976 0 0 0 85.14 9.63 A 2.563 2.563 0 0 0 85.123 9.332 A 1.757 1.757 0 0 0 84.45 8.1 Q 84.017 7.762 83.42 7.636 A 3.722 3.722 0 0 0 82.65 7.56 A 3.898 3.898 0 0 0 82.165 7.59 A 2.917 2.917 0 0 0 80.595 8.265 A 2.828 2.828 0 0 0 80.471 8.378 A 2.194 2.194 0 0 0 79.77 10.02 Q 79.77 11.07 80.4 11.655 A 1.89 1.89 0 0 0 80.93 11.999 Q 81.226 12.129 81.597 12.189 Z" vector-effect="non-scaling-stroke"/></g></svg>